<svg id="svg" version="1.1" xmlns="http://www.w3.org/2000/svg" xmlns:xlink="http://www.w3.org/1999/xlink" width="400" height="400" viewBox="0, 0, 400,400"><g id="svgg"><path id="path0" d="M215.600 64.000 C 215.600 64.248,213.467 64.400,210.000 64.400 C 206.533 64.400,204.400 64.552,204.400 64.800 C 204.400 65.020,203.500 65.200,202.400 65.200 C 201.300 65.200,200.400 65.380,200.400 65.600 C 200.400 65.829,199.200 66.000,197.600 66.000 C 196.000 66.000,194.800 66.171,194.800 66.400 C 194.800 66.620,194.080 66.800,193.200 66.800 C 192.320 66.800,191.600 66.980,191.600 67.200 C 191.600 67.420,191.060 67.600,190.400 67.600 C 189.740 67.600,189.200 67.780,189.200 68.000 C 189.200 68.220,188.300 68.400,187.200 68.400 C 186.100 68.400,185.200 68.580,185.200 68.800 C 185.200 69.020,184.840 69.200,184.400 69.200 C 183.960 69.200,183.600 69.380,183.600 69.600 C 183.600 69.820,182.880 70.000,182.000 70.000 C 181.120 70.000,180.400 70.180,180.400 70.400 C 180.400 70.620,179.860 70.800,179.200 70.800 C 178.540 70.800,178.000 70.980,178.000 71.200 C 178.000 71.420,177.460 71.600,176.800 71.600 C 176.140 71.600,175.600 71.780,175.600 72.000 C 175.600 72.220,175.060 72.400,174.400 72.400 C 173.740 72.400,173.200 72.580,173.200 72.800 C 173.200 73.020,172.840 73.200,172.400 73.200 C 171.960 73.200,171.600 73.380,171.600 73.600 C 171.600 73.820,171.060 74.000,170.400 74.000 C 169.740 74.000,169.200 74.180,169.200 74.400 C 169.200 74.620,168.840 74.800,168.400 74.800 C 167.960 74.800,167.600 74.980,167.600 75.200 C 167.600 75.420,167.060 75.600,166.400 75.600 C 165.740 75.600,165.200 75.780,165.200 76.000 C 165.200 76.220,164.840 76.400,164.400 76.400 C 163.960 76.400,163.600 76.580,163.600 76.800 C 163.600 77.020,163.240 77.200,162.800 77.200 C 162.360 77.200,162.000 77.380,162.000 77.600 C 162.000 77.820,161.640 78.000,161.200 78.000 C 160.760 78.000,160.400 78.180,160.400 78.400 C 160.400 78.620,160.040 78.800,159.600 78.800 C 159.160 78.800,158.800 78.980,158.800 79.200 C 158.800 79.420,158.440 79.600,158.000 79.600 C 157.560 79.600,157.200 79.780,157.200 80.000 C 157.200 80.220,156.840 80.400,156.400 80.400 C 155.960 80.400,155.600 80.580,155.600 80.800 C 155.600 81.020,155.240 81.200,154.800 81.200 C 154.360 81.200,154.000 81.380,154.000 81.600 C 154.000 81.820,153.640 82.000,153.200 82.000 C 152.760 82.000,152.400 82.180,152.400 82.400 C 152.400 82.620,152.040 82.800,151.600 82.800 C 151.160 82.800,150.800 82.980,150.800 83.200 C 150.800 83.420,150.480 83.600,150.088 83.600 C 149.697 83.600,149.117 83.960,148.800 84.400 C 148.483 84.840,147.903 85.200,147.512 85.200 C 147.120 85.200,146.800 85.380,146.800 85.600 C 146.800 85.820,146.480 86.000,146.088 86.000 C 145.697 86.000,145.117 86.360,144.800 86.800 C 144.483 87.240,143.943 87.600,143.600 87.600 C 143.257 87.600,142.717 87.960,142.400 88.400 C 142.083 88.840,141.543 89.200,141.200 89.200 C 140.857 89.200,140.317 89.560,140.000 90.000 C 139.683 90.440,139.103 90.800,138.712 90.800 C 138.320 90.800,138.000 90.980,138.000 91.200 C 138.000 91.420,137.712 91.600,137.360 91.600 C 137.009 91.600,136.217 92.140,135.600 92.800 C 134.983 93.460,134.231 94.000,133.928 94.000 C 133.625 94.000,133.117 94.360,132.800 94.800 C 132.483 95.240,131.975 95.600,131.672 95.600 C 131.369 95.600,130.617 96.140,130.000 96.800 C 129.383 97.460,128.663 98.000,128.400 98.000 C 128.137 98.000,127.417 98.540,126.800 99.200 C 126.183 99.860,125.467 100.400,125.208 100.400 C 124.949 100.400,124.046 101.120,123.200 102.000 C 122.354 102.880,121.467 103.600,121.227 103.600 C 120.609 103.600,111.600 112.684,111.600 113.307 C 111.600 113.591,111.240 114.083,110.800 114.400 C 110.360 114.717,110.000 115.297,110.000 115.688 C 110.000 116.080,109.820 116.400,109.600 116.400 C 109.363 116.400,109.200 117.867,109.200 120.000 C 109.200 122.133,109.363 123.600,109.600 123.600 C 109.820 123.600,110.000 124.320,110.000 125.200 C 110.000 126.080,110.180 126.800,110.400 126.800 C 110.620 126.800,110.800 127.160,110.800 127.600 C 110.800 128.040,110.980 128.400,111.200 128.400 C 111.420 128.400,111.600 128.940,111.600 129.600 C 111.600 130.260,111.780 130.800,112.000 130.800 C 112.220 130.800,112.400 131.160,112.400 131.600 C 112.400 132.040,112.580 132.400,112.800 132.400 C 113.020 132.400,113.200 132.760,113.200 133.200 C 113.200 133.640,113.380 134.000,113.600 134.000 C 113.820 134.000,114.000 134.500,114.000 135.112 C 114.000 135.765,114.330 136.461,114.800 136.800 C 115.240 137.117,115.600 137.697,115.600 138.088 C 115.600 138.480,115.780 138.800,116.000 138.800 C 116.220 138.800,116.400 139.160,116.400 139.600 C 116.400 140.040,116.580 140.400,116.800 140.400 C 117.020 140.400,117.200 140.760,117.200 141.200 C 117.200 141.640,117.380 142.000,117.600 142.000 C 117.820 142.000,118.000 142.320,118.000 142.712 C 118.000 143.103,118.360 143.683,118.800 144.000 C 119.240 144.317,119.600 144.825,119.600 145.128 C 119.600 145.431,120.140 146.183,120.800 146.800 C 121.460 147.417,122.000 148.121,122.000 148.366 C 122.000 149.330,129.563 156.400,130.595 156.400 C 131.148 156.400,131.600 156.580,131.600 156.800 C 131.600 157.022,132.667 157.200,134.000 157.200 C 135.333 157.200,136.400 157.022,136.400 156.800 C 136.400 156.580,136.760 156.400,137.200 156.400 C 137.640 156.400,138.000 156.220,138.000 156.000 C 138.000 155.780,138.320 155.600,138.712 155.600 C 139.103 155.600,139.683 155.240,140.000 154.800 C 140.317 154.360,140.857 154.000,141.200 154.000 C 141.543 154.000,142.083 153.640,142.400 153.200 C 142.717 152.760,143.219 152.400,143.514 152.400 C 143.810 152.400,144.929 151.500,146.000 150.400 C 147.071 149.300,148.158 148.400,148.414 148.400 C 148.670 148.400,149.383 147.860,150.000 147.200 C 150.617 146.540,151.333 146.000,151.592 146.000 C 151.851 146.000,152.754 145.280,153.600 144.400 C 154.446 143.520,155.343 142.800,155.595 142.800 C 155.846 142.800,156.929 141.900,158.000 140.800 C 159.071 139.700,160.158 138.800,160.414 138.800 C 160.670 138.800,161.383 138.260,162.000 137.600 C 162.617 136.940,163.333 136.400,163.592 136.400 C 163.851 136.400,164.754 135.680,165.600 134.800 C 166.446 133.920,167.349 133.200,167.608 133.200 C 167.867 133.200,168.583 132.660,169.200 132.000 C 169.817 131.340,170.537 130.800,170.800 130.800 C 171.063 130.800,171.783 130.260,172.400 129.600 C 173.017 128.940,173.737 128.400,174.000 128.400 C 174.263 128.400,174.983 127.860,175.600 127.200 C 176.217 126.540,176.969 126.000,177.272 126.000 C 177.575 126.000,178.083 125.640,178.400 125.200 C 178.717 124.760,179.225 124.400,179.528 124.400 C 179.831 124.400,180.583 123.860,181.200 123.200 C 181.817 122.540,182.569 122.000,182.872 122.000 C 183.175 122.000,183.683 121.640,184.000 121.200 C 184.317 120.760,184.857 120.400,185.200 120.400 C 185.543 120.400,186.083 120.040,186.400 119.600 C 186.717 119.160,187.297 118.800,187.688 118.800 C 188.080 118.800,188.400 118.620,188.400 118.400 C 188.400 118.180,188.760 118.000,189.200 118.000 C 189.640 118.000,190.000 117.820,190.000 117.600 C 190.000 117.380,190.320 117.200,190.712 117.200 C 191.103 117.200,191.683 116.840,192.000 116.400 C 192.317 115.960,192.897 115.600,193.288 115.600 C 193.680 115.600,194.000 115.420,194.000 115.200 C 194.000 114.980,194.320 114.800,194.712 114.800 C 195.103 114.800,195.683 114.440,196.000 114.000 C 196.339 113.530,197.035 113.200,197.688 113.200 C 198.300 113.200,198.800 113.020,198.800 112.800 C 198.800 112.580,199.160 112.400,199.600 112.400 C 200.040 112.400,200.400 112.220,200.400 112.000 C 200.400 111.780,200.760 111.600,201.200 111.600 C 201.640 111.600,202.000 111.420,202.000 111.200 C 202.000 110.980,202.540 110.800,203.200 110.800 C 203.860 110.800,204.400 110.620,204.400 110.400 C 204.400 110.180,204.760 110.000,205.200 110.000 C 205.640 110.000,206.000 109.820,206.000 109.600 C 206.000 109.380,206.720 109.200,207.600 109.200 C 208.480 109.200,209.200 109.020,209.200 108.800 C 209.200 108.580,209.920 108.400,210.800 108.400 C 211.680 108.400,212.400 108.220,212.400 108.000 C 212.400 107.756,214.267 107.600,217.200 107.600 C 220.133 107.600,222.000 107.756,222.000 108.000 C 222.000 108.229,223.200 108.400,224.800 108.400 C 226.400 108.400,227.600 108.571,227.600 108.800 C 227.600 109.022,228.667 109.200,230.000 109.200 C 231.333 109.200,232.400 109.378,232.400 109.600 C 232.400 109.820,232.940 110.000,233.600 110.000 C 234.260 110.000,234.800 110.180,234.800 110.400 C 234.800 110.620,235.160 110.800,235.600 110.800 C 236.040 110.800,236.400 110.980,236.400 111.200 C 236.400 111.420,236.760 111.600,237.200 111.600 C 237.640 111.600,238.000 111.780,238.000 112.000 C 238.000 112.220,238.360 112.400,238.800 112.400 C 239.240 112.400,239.600 112.580,239.600 112.800 C 239.600 113.020,239.876 113.200,240.213 113.200 C 240.962 113.200,243.600 115.769,243.600 116.498 C 243.600 116.787,243.960 117.283,244.400 117.600 C 244.870 117.939,245.200 118.635,245.200 119.288 C 245.200 119.900,245.380 120.400,245.600 120.400 C 245.820 120.400,246.000 121.120,246.000 122.000 C 246.000 122.880,246.180 123.600,246.400 123.600 C 246.620 123.600,246.800 124.320,246.800 125.200 C 246.800 126.080,246.620 126.800,246.400 126.800 C 246.180 126.800,246.000 127.520,246.000 128.400 C 246.000 129.280,245.820 130.000,245.600 130.000 C 245.380 130.000,245.200 130.680,245.200 131.512 C 245.200 132.565,244.957 133.198,244.400 133.600 C 243.960 133.917,243.600 134.497,243.600 134.888 C 243.600 135.280,243.420 135.600,243.200 135.600 C 242.980 135.600,242.800 135.920,242.800 136.312 C 242.800 136.703,242.440 137.283,242.000 137.600 C 241.560 137.917,241.200 138.457,241.200 138.800 C 241.200 139.143,240.840 139.683,240.400 140.000 C 239.960 140.317,239.600 140.809,239.600 141.093 C 239.600 141.716,230.591 150.800,229.973 150.800 C 229.733 150.800,228.846 151.520,228.000 152.400 C 227.154 153.280,226.251 154.000,225.992 154.000 C 225.733 154.000,225.017 154.540,224.400 155.200 C 223.783 155.860,223.031 156.400,222.728 156.400 C 222.425 156.400,221.917 156.760,221.600 157.200 C 221.283 157.640,220.775 158.000,220.472 158.000 C 220.169 158.000,219.417 158.540,218.800 159.200 C 218.183 159.860,217.431 160.400,217.128 160.400 C 216.825 160.400,216.317 160.760,216.000 161.200 C 215.683 161.640,215.103 162.000,214.712 162.000 C 214.320 162.000,214.000 162.180,214.000 162.400 C 214.000 162.620,213.680 162.800,213.288 162.800 C 212.897 162.800,212.317 163.160,212.000 163.600 C 211.683 164.040,211.103 164.400,210.712 164.400 C 210.320 164.400,210.000 164.580,210.000 164.800 C 210.000 165.020,209.640 165.200,209.200 165.200 C 208.760 165.200,208.400 165.380,208.400 165.600 C 208.400 165.820,208.080 166.000,207.688 166.000 C 207.297 166.000,206.717 166.360,206.400 166.800 C 206.083 167.240,205.503 167.600,205.112 167.600 C 204.720 167.600,204.400 167.780,204.400 168.000 C 204.400 168.220,204.080 168.400,203.688 168.400 C 203.297 168.400,202.717 168.760,202.400 169.200 C 202.083 169.640,201.503 170.000,201.112 170.000 C 200.720 170.000,200.400 170.180,200.400 170.400 C 200.400 170.620,200.040 170.800,199.600 170.800 C 199.160 170.800,198.800 170.980,198.800 171.200 C 198.800 171.420,198.440 171.600,198.000 171.600 C 197.560 171.600,197.200 171.780,197.200 172.000 C 197.200 172.220,196.840 172.400,196.400 172.400 C 195.960 172.400,195.600 172.580,195.600 172.800 C 195.600 173.020,195.240 173.200,194.800 173.200 C 194.360 173.200,194.000 173.380,194.000 173.600 C 194.000 173.820,193.680 174.000,193.288 174.000 C 192.897 174.000,192.317 174.360,192.000 174.800 C 191.682 175.241,190.965 175.600,190.400 175.600 C 189.835 175.600,189.118 175.959,188.800 176.400 C 188.483 176.840,187.903 177.200,187.512 177.200 C 187.120 177.200,186.800 177.380,186.800 177.600 C 186.800 177.820,186.440 178.000,186.000 178.000 C 185.560 178.000,185.200 178.180,185.200 178.400 C 185.200 178.620,184.840 178.800,184.400 178.800 C 183.960 178.800,183.600 178.980,183.600 179.200 C 183.600 179.420,183.240 179.600,182.800 179.600 C 182.360 179.600,182.000 179.780,182.000 180.000 C 182.000 180.220,181.640 180.400,181.200 180.400 C 180.760 180.400,180.400 180.580,180.400 180.800 C 180.400 181.020,180.040 181.200,179.600 181.200 C 179.160 181.200,178.800 181.380,178.800 181.600 C 178.800 181.820,178.480 182.000,178.088 182.000 C 177.697 182.000,177.117 182.360,176.800 182.800 C 176.483 183.240,175.903 183.600,175.512 183.600 C 175.120 183.600,174.800 183.780,174.800 184.000 C 174.800 184.220,174.440 184.400,174.000 184.400 C 173.560 184.400,173.200 184.580,173.200 184.800 C 173.200 185.020,172.840 185.200,172.400 185.200 C 171.960 185.200,171.600 185.380,171.600 185.600 C 171.600 185.820,171.364 186.000,171.075 186.000 C 170.787 186.000,170.201 186.315,169.773 186.700 C 169.345 187.085,168.277 187.787,167.398 188.260 C 166.519 188.733,165.120 189.498,164.288 189.960 C 163.456 190.422,162.421 190.800,161.988 190.800 C 161.555 190.800,161.200 190.980,161.200 191.200 C 161.200 191.420,160.880 191.600,160.488 191.600 C 160.097 191.600,159.517 191.960,159.200 192.400 C 158.882 192.841,158.165 193.200,157.600 193.200 C 157.035 193.200,156.318 193.559,156.000 194.000 C 155.683 194.440,155.103 194.800,154.712 194.800 C 154.320 194.800,154.000 194.980,154.000 195.200 C 154.000 195.420,153.640 195.600,153.200 195.600 C 152.760 195.600,152.400 195.780,152.400 196.000 C 152.400 196.220,152.040 196.400,151.600 196.400 C 151.160 196.400,150.800 196.580,150.800 196.800 C 150.800 197.020,150.440 197.200,150.000 197.200 C 149.560 197.200,149.200 197.380,149.200 197.600 C 149.200 197.820,148.840 198.000,148.400 198.000 C 147.960 198.000,147.600 198.180,147.600 198.400 C 147.600 198.620,147.240 198.800,146.800 198.800 C 146.360 198.800,146.000 198.980,146.000 199.200 C 146.000 199.420,145.680 199.600,145.288 199.600 C 144.897 199.600,144.317 199.960,144.000 200.400 C 143.683 200.840,143.103 201.200,142.712 201.200 C 142.320 201.200,142.000 201.380,142.000 201.600 C 142.000 201.820,141.640 202.000,141.200 202.000 C 140.760 202.000,140.400 202.180,140.400 202.400 C 140.400 202.620,140.040 202.800,139.600 202.800 C 139.160 202.800,138.800 202.980,138.800 203.200 C 138.800 203.420,138.480 203.600,138.088 203.600 C 137.697 203.600,137.117 203.960,136.800 204.400 C 136.482 204.841,135.765 205.200,135.200 205.200 C 134.635 205.200,133.918 205.559,133.600 206.000 C 133.283 206.440,132.703 206.800,132.312 206.800 C 131.920 206.800,131.600 206.980,131.600 207.200 C 131.600 207.420,131.240 207.600,130.800 207.600 C 130.360 207.600,130.000 207.780,130.000 208.000 C 130.000 208.220,129.640 208.400,129.200 208.400 C 128.760 208.400,128.400 208.580,128.400 208.800 C 128.400 209.020,128.080 209.200,127.688 209.200 C 127.297 209.200,126.717 209.560,126.400 210.000 C 126.083 210.440,125.503 210.800,125.112 210.800 C 124.720 210.800,124.400 210.980,124.400 211.200 C 124.400 211.420,124.040 211.600,123.600 211.600 C 123.160 211.600,122.800 211.780,122.800 212.000 C 122.800 212.220,122.440 212.400,122.000 212.400 C 121.560 212.400,121.200 212.580,121.200 212.800 C 121.200 213.020,120.880 213.200,120.488 213.200 C 120.097 213.200,119.517 213.560,119.200 214.000 C 118.883 214.440,118.303 214.800,117.912 214.800 C 117.520 214.800,117.200 214.980,117.200 215.200 C 117.200 215.420,116.840 215.600,116.400 215.600 C 115.960 215.600,115.600 215.780,115.600 216.000 C 115.600 216.220,115.240 216.400,114.800 216.400 C 114.360 216.400,114.000 216.580,114.000 216.800 C 114.000 217.020,113.680 217.200,113.288 217.200 C 112.897 217.200,112.317 217.560,112.000 218.000 C 111.683 218.440,111.103 218.800,110.712 218.800 C 110.320 218.800,110.000 218.980,110.000 219.200 C 110.000 219.420,109.680 219.600,109.288 219.600 C 108.897 219.600,108.317 219.960,108.000 220.400 C 107.683 220.840,107.175 221.200,106.872 221.200 C 106.569 221.200,105.817 221.740,105.200 222.400 C 104.583 223.060,103.867 223.600,103.608 223.600 C 103.349 223.600,102.446 224.320,101.600 225.200 C 100.754 226.080,99.854 226.800,99.600 226.800 C 99.346 226.800,98.446 227.520,97.600 228.400 C 96.754 229.280,95.861 230.000,95.614 230.000 C 95.368 230.000,93.741 231.440,92.000 233.200 C 90.259 234.960,88.642 236.400,88.407 236.400 C 87.848 236.400,84.400 239.850,84.400 240.409 C 84.400 240.645,83.140 242.081,81.600 243.600 C 80.060 245.119,78.800 246.564,78.800 246.812 C 78.800 247.060,78.080 247.954,77.200 248.800 C 76.320 249.646,75.600 250.582,75.600 250.880 C 75.600 251.179,75.240 251.683,74.800 252.000 C 74.360 252.317,74.000 252.857,74.000 253.200 C 74.000 253.543,73.640 254.083,73.200 254.400 C 72.760 254.717,72.400 255.257,72.400 255.600 C 72.400 255.943,72.040 256.483,71.600 256.800 C 71.160 257.117,70.800 257.657,70.800 258.000 C 70.800 258.343,70.440 258.883,70.000 259.200 C 69.560 259.517,69.200 260.097,69.200 260.488 C 69.200 260.880,69.020 261.200,68.800 261.200 C 68.580 261.200,68.400 261.560,68.400 262.000 C 68.400 262.440,68.220 262.800,68.000 262.800 C 67.780 262.800,67.600 263.160,67.600 263.600 C 67.600 264.040,67.420 264.400,67.200 264.400 C 66.980 264.400,66.800 264.900,66.800 265.512 C 66.800 266.165,66.470 266.861,66.000 267.200 C 65.530 267.539,65.200 268.235,65.200 268.888 C 65.200 269.500,65.020 270.000,64.800 270.000 C 64.580 270.000,64.400 270.540,64.400 271.200 C 64.400 271.860,64.220 272.400,64.000 272.400 C 63.780 272.400,63.600 272.760,63.600 273.200 C 63.600 273.640,63.420 274.000,63.200 274.000 C 62.980 274.000,62.800 274.720,62.800 275.600 C 62.800 276.480,62.620 277.200,62.400 277.200 C 62.180 277.200,62.000 277.920,62.000 278.800 C 62.000 279.680,61.820 280.400,61.600 280.400 C 61.378 280.400,61.200 281.467,61.200 282.800 C 61.200 284.133,61.022 285.200,60.800 285.200 C 60.571 285.200,60.400 286.400,60.400 288.000 C 60.400 289.600,60.229 290.800,60.000 290.800 C 59.758 290.800,59.600 292.533,59.600 295.200 C 59.600 297.867,59.758 299.600,60.000 299.600 C 60.220 299.600,60.400 300.500,60.400 301.600 C 60.400 302.700,60.580 303.600,60.800 303.600 C 61.020 303.600,61.200 304.320,61.200 305.200 C 61.200 306.080,61.380 306.800,61.600 306.800 C 61.820 306.800,62.000 307.160,62.000 307.600 C 62.000 308.040,62.180 308.400,62.400 308.400 C 62.620 308.400,62.800 308.760,62.800 309.200 C 62.800 309.640,62.980 310.000,63.200 310.000 C 63.420 310.000,63.600 310.360,63.600 310.800 C 63.600 311.240,63.780 311.600,64.000 311.600 C 64.220 311.600,64.400 311.960,64.400 312.400 C 64.400 312.840,64.580 313.200,64.800 313.200 C 65.020 313.200,65.200 313.520,65.200 313.912 C 65.200 314.303,65.560 314.883,66.000 315.200 C 66.440 315.517,66.800 316.025,66.800 316.328 C 66.800 316.631,67.340 317.383,68.000 318.000 C 68.660 318.617,69.200 319.409,69.200 319.760 C 69.200 320.133,69.534 320.400,70.000 320.400 C 70.450 320.400,70.800 320.667,70.800 321.009 C 70.800 321.707,74.955 326.000,75.631 326.000 C 75.877 326.000,76.583 326.540,77.200 327.200 C 77.817 327.860,78.569 328.400,78.872 328.400 C 79.175 328.400,79.683 328.760,80.000 329.200 C 80.637 330.083,87.600 330.450,87.600 329.600 C 87.600 329.380,88.320 329.200,89.200 329.200 C 90.080 329.200,90.800 329.020,90.800 328.800 C 90.800 328.578,91.867 328.400,93.200 328.400 C 94.533 328.400,95.600 328.222,95.600 328.000 C 95.600 327.780,96.320 327.600,97.200 327.600 C 98.080 327.600,98.800 327.420,98.800 327.200 C 98.800 326.980,99.700 326.800,100.800 326.800 C 101.900 326.800,102.800 326.620,102.800 326.400 C 102.800 326.180,103.700 326.000,104.800 326.000 C 105.900 326.000,106.800 325.820,106.800 325.600 C 106.800 325.380,107.700 325.200,108.800 325.200 C 109.900 325.200,110.800 325.020,110.800 324.800 C 110.800 324.563,112.267 324.400,114.400 324.400 C 116.533 324.400,118.000 324.237,118.000 324.000 C 118.000 323.767,119.333 323.600,121.200 323.600 C 123.067 323.600,124.400 323.433,124.400 323.200 C 124.400 322.952,126.533 322.800,130.000 322.800 C 133.467 322.800,135.600 322.648,135.600 322.400 C 135.600 322.160,137.200 322.000,139.600 322.000 C 142.000 322.000,143.600 321.840,143.600 321.600 C 143.600 321.380,144.500 321.200,145.600 321.200 C 146.700 321.200,147.600 321.380,147.600 321.600 C 147.600 321.837,149.067 322.000,151.200 322.000 C 153.333 322.000,154.800 322.163,154.800 322.400 C 154.800 322.629,156.000 322.800,157.600 322.800 C 159.200 322.800,160.400 322.971,160.400 323.200 C 160.400 323.420,161.300 323.600,162.400 323.600 C 163.500 323.600,164.400 323.780,164.400 324.000 C 164.400 324.229,165.600 324.400,167.200 324.400 C 168.800 324.400,170.000 324.571,170.000 324.800 C 170.000 325.020,170.900 325.200,172.000 325.200 C 173.100 325.200,174.000 325.380,174.000 325.600 C 174.000 325.829,175.200 326.000,176.800 326.000 C 178.400 326.000,179.600 326.171,179.600 326.400 C 179.600 326.620,180.500 326.800,181.600 326.800 C 182.700 326.800,183.600 326.980,183.600 327.200 C 183.600 327.422,184.667 327.600,186.000 327.600 C 187.333 327.600,188.400 327.778,188.400 328.000 C 188.400 328.237,189.867 328.400,192.000 328.400 C 194.133 328.400,195.600 328.563,195.600 328.800 C 195.600 329.033,196.933 329.200,198.800 329.200 C 200.667 329.200,202.000 329.367,202.000 329.600 C 202.000 329.844,203.867 330.000,206.800 330.000 C 209.733 330.000,211.600 330.156,211.600 330.400 C 211.600 330.642,213.333 330.800,216.000 330.800 C 218.667 330.800,220.400 330.958,220.400 331.200 C 220.400 331.444,222.267 331.600,225.200 331.600 C 228.133 331.600,230.000 331.756,230.000 332.000 C 230.000 332.253,232.800 332.400,237.600 332.400 C 242.400 332.400,245.200 332.547,245.200 332.800 C 245.200 333.059,250.267 333.200,259.600 333.200 C 268.933 333.200,274.000 333.059,274.000 332.800 C 274.000 332.560,275.600 332.400,278.000 332.400 C 280.400 332.400,282.000 332.240,282.000 332.000 C 282.000 331.780,282.900 331.600,284.000 331.600 C 285.100 331.600,286.000 331.420,286.000 331.200 C 286.000 330.980,286.900 330.800,288.000 330.800 C 289.100 330.800,290.000 330.620,290.000 330.400 C 290.000 330.180,290.900 330.000,292.000 330.000 C 293.100 330.000,294.000 329.820,294.000 329.600 C 294.000 329.380,294.360 329.200,294.800 329.200 C 295.240 329.200,295.600 329.020,295.600 328.800 C 295.600 328.580,296.320 328.400,297.200 328.400 C 298.080 328.400,298.800 328.220,298.800 328.000 C 298.800 327.780,299.340 327.600,300.000 327.600 C 300.660 327.600,301.200 327.420,301.200 327.200 C 301.200 326.980,301.560 326.800,302.000 326.800 C 302.440 326.800,302.800 326.620,302.800 326.400 C 302.800 326.180,303.340 326.000,304.000 326.000 C 304.660 326.000,305.200 325.820,305.200 325.600 C 305.200 325.380,305.560 325.200,306.000 325.200 C 306.440 325.200,306.800 325.020,306.800 324.800 C 306.800 324.580,307.300 324.400,307.912 324.400 C 308.565 324.400,309.261 324.070,309.600 323.600 C 309.917 323.160,310.497 322.800,310.888 322.800 C 311.280 322.800,311.600 322.620,311.600 322.400 C 311.600 322.180,311.920 322.000,312.312 322.000 C 312.703 322.000,313.283 321.640,313.600 321.200 C 313.917 320.760,314.497 320.400,314.888 320.400 C 315.280 320.400,315.600 320.220,315.600 320.000 C 315.600 319.780,315.884 319.600,316.231 319.600 C 316.579 319.600,317.554 318.880,318.400 318.000 C 319.246 317.120,320.134 316.400,320.374 316.400 C 320.950 316.400,327.600 309.742,327.600 309.166 C 327.600 308.921,328.140 308.217,328.800 307.600 C 329.460 306.983,330.000 306.231,330.000 305.928 C 330.000 305.625,330.360 305.117,330.800 304.800 C 331.240 304.483,331.600 303.943,331.600 303.600 C 331.600 303.257,331.960 302.717,332.400 302.400 C 332.841 302.082,333.200 301.365,333.200 300.800 C 333.200 300.235,333.559 299.518,334.000 299.200 C 334.470 298.861,334.800 298.165,334.800 297.512 C 334.800 296.900,334.980 296.400,335.200 296.400 C 335.420 296.400,335.600 295.860,335.600 295.200 C 335.600 294.540,335.780 294.000,336.000 294.000 C 336.220 294.000,336.400 293.640,336.400 293.200 C 336.400 292.760,336.580 292.400,336.800 292.400 C 337.020 292.400,337.200 291.680,337.200 290.800 C 337.200 289.920,337.380 289.200,337.600 289.200 C 337.820 289.200,338.000 288.480,338.000 287.600 C 338.000 286.720,338.180 286.000,338.400 286.000 C 338.657 286.000,338.800 282.133,338.800 275.200 C 338.800 268.267,338.657 264.400,338.400 264.400 C 338.180 264.400,338.000 263.500,338.000 262.400 C 338.000 261.300,337.820 260.400,337.600 260.400 C 337.378 260.400,337.200 259.333,337.200 258.000 C 337.200 256.667,337.022 255.600,336.800 255.600 C 336.580 255.600,336.400 255.060,336.400 254.400 C 336.400 253.740,336.220 253.200,336.000 253.200 C 335.780 253.200,335.600 252.480,335.600 251.600 C 335.600 250.720,335.420 250.000,335.200 250.000 C 334.980 250.000,334.800 249.640,334.800 249.200 C 334.800 248.760,334.620 248.400,334.400 248.400 C 334.180 248.400,334.000 247.860,334.000 247.200 C 334.000 246.540,333.820 246.000,333.600 246.000 C 333.380 246.000,333.200 245.680,333.200 245.288 C 333.200 244.897,332.840 244.317,332.400 244.000 C 331.960 243.683,331.600 243.189,331.600 242.903 C 331.600 242.175,327.350 238.000,326.609 238.000 C 326.274 238.000,326.000 237.820,326.000 237.600 C 326.000 237.380,325.640 237.200,325.200 237.200 C 324.760 237.200,324.400 237.020,324.400 236.800 C 324.400 235.885,320.007 236.357,318.982 237.382 C 317.938 238.426,317.510 242.850,318.400 243.400 C 318.620 243.536,318.800 245.257,318.800 247.224 C 318.800 249.341,318.637 250.800,318.400 250.800 C 318.180 250.800,318.000 251.700,318.000 252.800 C 318.000 253.900,317.820 254.800,317.600 254.800 C 317.380 254.800,317.200 255.340,317.200 256.000 C 317.200 256.660,317.020 257.200,316.800 257.200 C 316.580 257.200,316.400 257.560,316.400 258.000 C 316.400 258.440,316.220 258.800,316.000 258.800 C 315.780 258.800,315.600 259.300,315.600 259.912 C 315.600 260.565,315.270 261.261,314.800 261.600 C 314.360 261.917,314.000 262.409,314.000 262.694 C 314.000 263.369,307.369 270.000,306.694 270.000 C 306.409 270.000,305.917 270.360,305.600 270.800 C 305.283 271.240,304.743 271.600,304.400 271.600 C 304.057 271.600,303.517 271.960,303.200 272.400 C 302.861 272.870,302.165 273.200,301.512 273.200 C 300.900 273.200,300.400 273.380,300.400 273.600 C 300.400 273.820,300.040 274.000,299.600 274.000 C 299.160 274.000,298.800 274.180,298.800 274.400 C 298.800 274.620,298.440 274.800,298.000 274.800 C 297.560 274.800,297.200 274.980,297.200 275.200 C 297.200 275.420,296.300 275.600,295.200 275.600 C 294.100 275.600,293.200 275.780,293.200 276.000 C 293.200 276.220,292.300 276.400,291.200 276.400 C 290.100 276.400,289.200 276.580,289.200 276.800 C 289.200 277.053,286.400 277.200,281.600 277.200 C 276.800 277.200,274.000 277.053,274.000 276.800 C 274.000 276.547,271.200 276.400,266.400 276.400 C 261.600 276.400,258.800 276.253,258.800 276.000 C 258.800 275.744,255.333 275.600,249.200 275.600 C 243.067 275.600,239.600 275.456,239.600 275.200 C 239.600 274.954,237.600 274.800,234.400 274.800 C 231.200 274.800,229.200 274.646,229.200 274.400 C 229.200 274.151,226.933 274.000,223.200 274.000 C 219.467 274.000,217.200 273.849,217.200 273.600 C 217.200 273.351,214.933 273.200,211.200 273.200 C 207.467 273.200,205.200 273.049,205.200 272.800 C 205.200 272.560,203.600 272.400,201.200 272.400 C 198.800 272.400,197.200 272.240,197.200 272.000 C 197.200 271.754,195.200 271.600,192.000 271.600 C 188.800 271.600,186.800 271.446,186.800 271.200 C 186.800 270.978,185.733 270.800,184.400 270.800 C 183.067 270.800,182.000 270.622,182.000 270.400 C 182.000 270.160,180.400 270.000,178.000 270.000 C 175.600 270.000,174.000 269.840,174.000 269.600 C 174.000 269.350,171.600 269.200,167.600 269.200 C 163.600 269.200,161.200 269.050,161.200 268.800 C 161.200 268.558,159.467 268.400,156.800 268.400 C 154.133 268.400,152.400 268.558,152.400 268.800 C 152.400 269.020,152.040 269.200,151.600 269.200 C 151.160 269.200,150.800 269.020,150.800 268.800 C 150.800 268.580,150.980 268.400,151.200 268.400 C 151.420 268.400,151.600 267.860,151.600 267.200 C 151.600 266.540,151.780 266.000,152.000 266.000 C 152.220 266.000,152.400 265.640,152.400 265.200 C 152.400 264.760,152.580 264.400,152.800 264.400 C 153.020 264.400,153.200 264.118,153.200 263.774 C 153.200 263.430,154.100 262.271,155.200 261.200 C 156.300 260.129,157.200 258.970,157.200 258.626 C 157.200 258.282,157.480 258.000,157.822 258.000 C 158.164 258.000,159.504 256.920,160.800 255.600 C 162.096 254.280,163.360 253.200,163.609 253.200 C 163.859 253.200,164.754 252.480,165.600 251.600 C 166.446 250.720,167.382 250.000,167.680 250.000 C 167.979 250.000,168.483 249.640,168.800 249.200 C 169.117 248.760,169.697 248.400,170.088 248.400 C 170.480 248.400,170.800 248.220,170.800 248.000 C 170.800 247.780,171.120 247.600,171.512 247.600 C 171.903 247.600,172.483 247.240,172.800 246.800 C 173.117 246.360,173.657 246.000,174.000 246.000 C 174.343 246.000,174.883 245.640,175.200 245.200 C 175.517 244.760,176.097 244.400,176.488 244.400 C 176.880 244.400,177.200 244.220,177.200 244.000 C 177.200 243.780,177.520 243.600,177.912 243.600 C 178.303 243.600,178.883 243.240,179.200 242.800 C 179.517 242.360,180.097 242.000,180.488 242.000 C 180.880 242.000,181.200 241.820,181.200 241.600 C 181.200 241.380,181.560 241.200,182.000 241.200 C 182.440 241.200,182.800 241.020,182.800 240.800 C 182.800 240.580,183.120 240.400,183.512 240.400 C 183.903 240.400,184.483 240.040,184.800 239.600 C 185.117 239.160,185.697 238.800,186.088 238.800 C 186.480 238.800,186.800 238.620,186.800 238.400 C 186.800 238.180,187.160 238.000,187.600 238.000 C 188.040 238.000,188.400 237.820,188.400 237.600 C 188.400 237.380,188.760 237.200,189.200 237.200 C 189.640 237.200,190.000 237.020,190.000 236.800 C 190.000 236.580,190.360 236.400,190.800 236.400 C 191.240 236.400,191.600 236.220,191.600 236.000 C 191.600 235.780,191.960 235.600,192.400 235.600 C 192.840 235.600,193.200 235.420,193.200 235.200 C 193.200 234.980,193.560 234.800,194.000 234.800 C 194.440 234.800,194.800 234.620,194.800 234.400 C 194.800 234.180,195.120 234.000,195.512 234.000 C 195.903 234.000,196.483 233.640,196.800 233.200 C 197.118 232.759,197.835 232.400,198.400 232.400 C 198.965 232.400,199.682 232.041,200.000 231.600 C 200.318 231.159,201.035 230.800,201.600 230.800 C 202.165 230.800,202.882 230.441,203.200 230.000 C 203.517 229.560,204.097 229.200,204.488 229.200 C 204.880 229.200,205.200 229.020,205.200 228.800 C 205.200 228.580,205.560 228.400,206.000 228.400 C 206.440 228.400,206.800 228.220,206.800 228.000 C 206.800 227.780,207.160 227.600,207.600 227.600 C 208.040 227.600,208.400 227.420,208.400 227.200 C 208.400 226.980,208.760 226.800,209.200 226.800 C 209.640 226.800,210.000 226.620,210.000 226.400 C 210.000 226.180,210.360 226.000,210.800 226.000 C 211.240 226.000,211.600 225.820,211.600 225.600 C 211.600 225.380,211.960 225.200,212.400 225.200 C 212.840 225.200,213.200 225.020,213.200 224.800 C 213.200 224.580,213.520 224.400,213.912 224.400 C 214.303 224.400,214.883 224.040,215.200 223.600 C 215.518 223.159,216.235 222.800,216.800 222.800 C 217.365 222.800,218.082 222.441,218.400 222.000 C 218.717 221.560,219.297 221.200,219.688 221.200 C 220.080 221.200,220.400 221.020,220.400 220.800 C 220.400 220.580,220.760 220.400,221.200 220.400 C 221.640 220.400,222.000 220.220,222.000 220.000 C 222.000 219.780,222.360 219.600,222.800 219.600 C 223.240 219.600,223.600 219.420,223.600 219.200 C 223.600 218.980,223.960 218.800,224.400 218.800 C 224.840 218.800,225.200 218.620,225.200 218.400 C 225.200 218.180,225.560 218.000,226.000 218.000 C 226.440 218.000,226.800 217.820,226.800 217.600 C 226.800 217.380,227.120 217.200,227.512 217.200 C 227.903 217.200,228.483 216.840,228.800 216.400 C 229.117 215.960,229.697 215.600,230.088 215.600 C 230.480 215.600,230.800 215.420,230.800 215.200 C 230.800 214.980,231.160 214.800,231.600 214.800 C 232.040 214.800,232.400 214.620,232.400 214.400 C 232.400 214.180,232.760 214.000,233.200 214.000 C 233.640 214.000,234.000 213.820,234.000 213.600 C 234.000 213.380,234.360 213.200,234.800 213.200 C 235.240 213.200,235.600 213.020,235.600 212.800 C 235.600 212.580,235.920 212.400,236.312 212.400 C 236.703 212.400,237.283 212.040,237.600 211.600 C 237.917 211.160,238.497 210.800,238.888 210.800 C 239.280 210.800,239.600 210.620,239.600 210.400 C 239.600 210.180,239.960 210.000,240.400 210.000 C 240.840 210.000,241.200 209.820,241.200 209.600 C 241.200 209.380,241.560 209.200,242.000 209.200 C 242.440 209.200,242.800 209.020,242.800 208.800 C 242.800 208.580,243.120 208.400,243.512 208.400 C 243.903 208.400,244.483 208.040,244.800 207.600 C 245.117 207.160,245.697 206.800,246.088 206.800 C 246.480 206.800,246.800 206.620,246.800 206.400 C 246.800 206.180,247.160 206.000,247.600 206.000 C 248.040 206.000,248.400 205.820,248.400 205.600 C 248.400 205.380,248.720 205.200,249.112 205.200 C 249.503 205.200,250.083 204.840,250.400 204.400 C 250.717 203.960,251.297 203.600,251.688 203.600 C 252.080 203.600,252.400 203.420,252.400 203.200 C 252.400 202.980,252.720 202.800,253.112 202.800 C 253.503 202.800,254.083 202.440,254.400 202.000 C 254.718 201.559,255.435 201.200,256.000 201.200 C 256.565 201.200,257.282 200.841,257.600 200.400 C 257.917 199.960,258.497 199.600,258.888 199.600 C 259.280 199.600,259.600 199.420,259.600 199.200 C 259.600 198.980,259.920 198.800,260.312 198.800 C 260.703 198.800,261.283 198.440,261.600 198.000 C 261.917 197.560,262.457 197.200,262.800 197.200 C 263.143 197.200,263.683 196.840,264.000 196.400 C 264.317 195.960,264.857 195.600,265.200 195.600 C 265.543 195.600,266.083 195.240,266.400 194.800 C 266.717 194.360,267.297 194.000,267.688 194.000 C 268.080 194.000,268.400 193.820,268.400 193.600 C 268.400 193.380,268.720 193.200,269.112 193.200 C 269.503 193.200,270.083 192.840,270.400 192.400 C 270.717 191.960,271.225 191.600,271.528 191.600 C 271.831 191.600,272.583 191.060,273.200 190.400 C 273.817 189.740,274.533 189.200,274.792 189.200 C 275.051 189.200,275.954 188.480,276.800 187.600 C 277.646 186.720,278.543 186.000,278.795 186.000 C 279.046 186.000,280.129 185.100,281.200 184.000 C 282.271 182.900,283.341 182.000,283.577 182.000 C 284.138 182.000,296.400 169.738,296.400 169.177 C 296.400 168.941,297.300 167.871,298.400 166.800 C 299.500 165.729,300.400 164.610,300.400 164.314 C 300.400 164.019,300.760 163.517,301.200 163.200 C 301.640 162.883,302.000 162.343,302.000 162.000 C 302.000 161.657,302.360 161.117,302.800 160.800 C 303.240 160.483,303.600 159.943,303.600 159.600 C 303.600 159.257,303.960 158.717,304.400 158.400 C 304.840 158.083,305.200 157.503,305.200 157.112 C 305.200 156.720,305.380 156.400,305.600 156.400 C 305.820 156.400,306.000 156.080,306.000 155.688 C 306.000 155.297,306.360 154.717,306.800 154.400 C 307.240 154.083,307.600 153.503,307.600 153.112 C 307.600 152.720,307.780 152.400,308.000 152.400 C 308.220 152.400,308.400 152.040,308.400 151.600 C 308.400 151.160,308.580 150.800,308.800 150.800 C 309.020 150.800,309.200 150.440,309.200 150.000 C 309.200 149.560,309.380 149.200,309.600 149.200 C 309.820 149.200,310.000 148.660,310.000 148.000 C 310.000 147.340,310.180 146.800,310.400 146.800 C 310.620 146.800,310.800 146.440,310.800 146.000 C 310.800 145.560,310.980 145.200,311.200 145.200 C 311.420 145.200,311.600 144.660,311.600 144.000 C 311.600 143.340,311.780 142.800,312.000 142.800 C 312.220 142.800,312.400 142.260,312.400 141.600 C 312.400 140.940,312.580 140.400,312.800 140.400 C 313.020 140.400,313.200 139.860,313.200 139.200 C 313.200 138.540,313.380 138.000,313.600 138.000 C 313.822 138.000,314.000 136.933,314.000 135.600 C 314.000 134.267,314.178 133.200,314.400 133.200 C 314.620 133.200,314.800 132.300,314.800 131.200 C 314.800 130.100,314.980 129.200,315.200 129.200 C 315.452 129.200,315.600 126.533,315.600 122.000 C 315.600 117.467,315.452 114.800,315.200 114.800 C 314.980 114.800,314.800 113.900,314.800 112.800 C 314.800 111.700,314.620 110.800,314.400 110.800 C 314.180 110.800,314.000 109.900,314.000 108.800 C 314.000 107.700,313.820 106.800,313.600 106.800 C 313.380 106.800,313.200 106.260,313.200 105.600 C 313.200 104.940,313.020 104.400,312.800 104.400 C 312.580 104.400,312.400 104.040,312.400 103.600 C 312.400 103.160,312.220 102.800,312.000 102.800 C 311.780 102.800,311.600 102.300,311.600 101.688 C 311.600 101.035,311.270 100.339,310.800 100.000 C 310.360 99.683,310.000 99.103,310.000 98.712 C 310.000 98.320,309.820 98.000,309.600 98.000 C 309.380 98.000,309.200 97.680,309.200 97.288 C 309.200 96.897,308.840 96.317,308.400 96.000 C 307.960 95.683,307.600 95.143,307.600 94.800 C 307.600 94.457,307.240 93.917,306.800 93.600 C 306.360 93.283,306.000 92.791,306.000 92.507 C 306.000 91.833,297.767 83.600,297.093 83.600 C 296.809 83.600,296.317 83.240,296.000 82.800 C 295.683 82.360,295.175 82.000,294.872 82.000 C 294.569 82.000,293.817 81.460,293.200 80.800 C 292.583 80.140,291.831 79.600,291.528 79.600 C 291.225 79.600,290.717 79.240,290.400 78.800 C 290.082 78.359,289.365 78.000,288.800 78.000 C 288.235 78.000,287.518 77.641,287.200 77.200 C 286.883 76.760,286.303 76.400,285.912 76.400 C 285.520 76.400,285.200 76.220,285.200 76.000 C 285.200 75.780,284.840 75.600,284.400 75.600 C 283.960 75.600,283.600 75.420,283.600 75.200 C 283.600 74.980,283.240 74.800,282.800 74.800 C 282.360 74.800,282.000 74.620,282.000 74.400 C 282.000 74.180,281.460 74.000,280.800 74.000 C 280.140 74.000,279.600 73.820,279.600 73.600 C 279.600 73.380,279.240 73.200,278.800 73.200 C 278.360 73.200,278.000 73.020,278.000 72.800 C 278.000 72.580,277.460 72.400,276.800 72.400 C 276.140 72.400,275.600 72.220,275.600 72.000 C 275.600 71.780,275.060 71.600,274.400 71.600 C 273.740 71.600,273.200 71.420,273.200 71.200 C 273.200 70.980,272.840 70.800,272.400 70.800 C 271.960 70.800,271.600 70.620,271.600 70.400 C 271.600 70.180,270.880 70.000,270.000 70.000 C 269.120 70.000,268.400 69.820,268.400 69.600 C 268.400 69.380,267.860 69.200,267.200 69.200 C 266.540 69.200,266.000 69.020,266.000 68.800 C 266.000 68.580,265.100 68.400,264.000 68.400 C 262.900 68.400,262.000 68.220,262.000 68.000 C 262.000 67.780,261.280 67.600,260.400 67.600 C 259.520 67.600,258.800 67.420,258.800 67.200 C 258.800 66.980,258.080 66.800,257.200 66.800 C 256.320 66.800,255.600 66.620,255.600 66.400 C 255.600 66.167,254.267 66.000,252.400 66.000 C 250.533 66.000,249.200 65.833,249.200 65.600 C 249.200 65.378,248.133 65.200,246.800 65.200 C 245.467 65.200,244.400 65.022,244.400 64.800 C 244.400 64.548,241.733 64.400,237.200 64.400 C 232.667 64.400,230.000 64.252,230.000 64.000 C 230.000 63.748,227.333 63.600,222.800 63.600 C 218.267 63.600,215.600 63.748,215.600 64.000 " stroke="none" fill="#f40404" fill-rule="evenodd"></path><path id="path1" d="M54.800 130.400 C 54.800 130.620,54.157 130.800,53.371 130.800 C 51.313 130.800,50.800 131.519,50.800 134.400 C 50.800 136.927,51.328 138.000,52.571 138.000 C 52.917 138.000,53.200 138.180,53.200 138.400 C 53.200 138.620,53.740 138.800,54.400 138.800 C 55.060 138.800,55.600 138.980,55.600 139.200 C 55.600 139.420,55.960 139.600,56.400 139.600 C 56.840 139.600,57.200 139.780,57.200 140.000 C 57.200 140.220,57.740 140.400,58.400 140.400 C 59.949 140.400,59.917 140.558,58.000 142.400 C 57.120 143.246,56.400 144.221,56.400 144.569 C 56.400 144.916,56.220 145.200,56.000 145.200 C 55.780 145.200,55.600 145.920,55.600 146.800 C 55.600 147.680,55.420 148.400,55.200 148.400 C 54.967 148.400,54.800 149.733,54.800 151.600 C 54.800 153.467,54.633 154.800,54.400 154.800 C 54.167 154.800,54.000 156.133,54.000 158.000 C 54.000 159.867,53.833 161.200,53.600 161.200 C 53.367 161.200,53.200 162.533,53.200 164.400 C 53.200 166.267,53.033 167.600,52.800 167.600 C 52.571 167.600,52.400 168.800,52.400 170.400 C 52.400 172.000,52.229 173.200,52.000 173.200 C 51.749 173.200,51.600 175.733,51.600 180.000 L 51.600 186.800 53.013 186.800 C 54.533 186.800,57.200 184.642,57.200 183.413 C 57.200 183.076,57.380 182.800,57.600 182.800 C 57.820 182.800,58.000 182.440,58.000 182.000 C 58.000 181.560,58.180 181.200,58.400 181.200 C 58.620 181.200,58.800 180.660,58.800 180.000 C 58.800 179.340,58.980 178.800,59.200 178.800 C 59.420 178.800,59.600 178.260,59.600 177.600 C 59.600 176.940,59.780 176.400,60.000 176.400 C 60.220 176.400,60.400 175.680,60.400 174.800 C 60.400 173.920,60.580 173.200,60.800 173.200 C 61.040 173.200,61.200 171.600,61.200 169.200 C 61.200 166.800,61.360 165.200,61.600 165.200 C 61.820 165.200,62.000 164.660,62.000 164.000 C 62.000 163.340,62.180 162.800,62.400 162.800 C 62.620 162.800,62.800 161.900,62.800 160.800 C 62.800 159.700,62.980 158.800,63.200 158.800 C 63.420 158.800,63.600 158.080,63.600 157.200 C 63.600 156.320,63.780 155.600,64.000 155.600 C 64.220 155.600,64.400 155.060,64.400 154.400 C 64.400 153.740,64.580 153.200,64.800 153.200 C 65.020 153.200,65.200 152.300,65.200 151.200 C 65.200 150.100,65.380 149.200,65.600 149.200 C 65.820 149.200,66.000 148.660,66.000 148.000 C 66.000 147.340,66.180 146.800,66.400 146.800 C 66.620 146.800,66.800 146.080,66.800 145.200 C 66.800 144.320,66.980 143.600,67.200 143.600 C 67.420 143.600,67.600 143.780,67.600 144.000 C 67.600 144.220,68.100 144.400,68.712 144.400 C 69.365 144.400,70.061 144.730,70.400 145.200 C 70.717 145.640,71.297 146.000,71.688 146.000 C 72.080 146.000,72.400 146.180,72.400 146.400 C 72.400 146.620,72.760 146.800,73.200 146.800 C 73.640 146.800,74.000 146.980,74.000 147.200 C 74.000 147.420,74.360 147.600,74.800 147.600 C 75.240 147.600,75.600 147.780,75.600 148.000 C 75.600 148.220,75.873 148.400,76.206 148.400 C 77.274 148.400,82.800 154.262,82.800 155.394 C 82.800 155.947,82.980 156.400,83.200 156.400 C 83.429 156.400,83.600 157.600,83.600 159.200 C 83.600 160.800,83.429 162.000,83.200 162.000 C 82.980 162.000,82.800 162.540,82.800 163.200 C 82.800 163.860,82.620 164.400,82.400 164.400 C 82.180 164.400,82.000 164.720,82.000 165.112 C 82.000 165.503,81.640 166.083,81.200 166.400 C 80.760 166.717,80.400 167.225,80.400 167.528 C 80.400 167.831,79.860 168.583,79.200 169.200 C 78.540 169.817,78.000 170.569,78.000 170.872 C 78.000 171.175,77.640 171.683,77.200 172.000 C 76.760 172.317,76.400 172.812,76.400 173.099 C 76.400 173.737,72.998 177.200,72.371 177.200 C 72.123 177.200,71.417 177.740,70.800 178.400 C 70.183 179.060,69.431 179.600,69.128 179.600 C 68.825 179.600,68.317 179.960,68.000 180.400 C 67.683 180.840,67.175 181.200,66.872 181.200 C 66.569 181.200,65.817 181.740,65.200 182.400 C 64.356 183.303,63.723 183.600,62.640 183.600 C 61.848 183.600,61.200 183.780,61.200 184.000 C 61.200 184.220,60.660 184.400,60.000 184.400 C 59.340 184.400,58.800 184.580,58.800 184.800 C 58.800 185.020,58.525 185.200,58.189 185.200 C 57.015 185.200,54.000 188.667,54.000 190.018 C 54.000 191.362,54.772 192.400,55.771 192.400 C 56.117 192.400,56.400 192.580,56.400 192.800 C 56.400 193.020,57.120 193.200,58.000 193.200 C 58.880 193.200,59.600 193.020,59.600 192.800 C 59.600 192.580,60.320 192.400,61.200 192.400 C 62.080 192.400,62.800 192.220,62.800 192.000 C 62.800 191.780,63.520 191.600,64.400 191.600 C 65.280 191.600,66.000 191.420,66.000 191.200 C 66.000 190.980,66.360 190.800,66.800 190.800 C 67.240 190.800,67.600 190.620,67.600 190.400 C 67.600 190.180,68.140 190.000,68.800 190.000 C 69.460 190.000,70.000 189.820,70.000 189.600 C 70.000 189.380,70.320 189.200,70.712 189.200 C 71.103 189.200,71.683 188.840,72.000 188.400 C 72.318 187.959,73.035 187.600,73.600 187.600 C 74.165 187.600,74.882 187.241,75.200 186.800 C 75.517 186.360,76.097 186.000,76.488 186.000 C 76.880 186.000,77.200 185.820,77.200 185.600 C 77.200 185.380,77.740 185.200,78.400 185.200 C 79.060 185.200,79.600 185.020,79.600 184.800 C 79.600 184.578,80.667 184.400,82.000 184.400 C 83.333 184.400,84.400 184.222,84.400 184.000 C 84.400 183.771,85.600 183.600,87.200 183.600 C 88.800 183.600,90.000 183.429,90.000 183.200 C 90.000 182.980,90.540 182.800,91.200 182.800 C 91.860 182.800,92.400 182.620,92.400 182.400 C 92.400 182.180,92.682 182.000,93.026 182.000 C 93.370 182.000,94.529 181.100,95.600 180.000 C 96.671 178.900,97.815 178.000,98.141 178.000 C 98.467 178.000,98.808 177.777,98.899 177.504 C 99.106 176.882,100.400 178.071,100.400 178.883 C 100.400 179.180,100.760 179.683,101.200 180.000 C 101.640 180.317,102.000 180.992,102.000 181.499 C 102.000 182.790,105.273 186.000,106.589 186.000 C 107.145 186.000,107.600 186.180,107.600 186.400 C 107.600 186.622,108.667 186.800,110.000 186.800 C 111.333 186.800,112.400 186.622,112.400 186.400 C 112.400 186.180,112.760 186.000,113.200 186.000 C 113.640 186.000,114.000 185.820,114.000 185.600 C 114.000 185.380,114.320 185.200,114.712 185.200 C 115.103 185.200,115.683 184.840,116.000 184.400 C 116.317 183.960,116.857 183.600,117.200 183.600 C 117.543 183.600,118.083 183.240,118.400 182.800 C 118.717 182.360,119.213 182.000,119.502 182.000 C 119.791 182.000,121.815 180.200,124.000 178.000 C 126.185 175.800,128.170 174.000,128.412 174.000 C 128.654 174.000,129.729 173.100,130.800 172.000 C 132.419 170.338,132.989 170.000,134.174 170.000 L 135.600 170.000 135.600 172.800 C 135.600 174.400,135.429 175.600,135.200 175.600 C 134.980 175.600,134.800 176.140,134.800 176.800 C 134.800 177.460,134.620 178.000,134.400 178.000 C 134.180 178.000,134.000 178.360,134.000 178.800 C 134.000 179.240,133.820 179.600,133.600 179.600 C 133.380 179.600,133.200 180.320,133.200 181.200 C 133.200 182.080,133.020 182.800,132.800 182.800 C 132.154 182.800,132.305 187.963,132.971 188.629 C 133.637 189.295,138.800 189.446,138.800 188.800 C 138.800 188.580,139.160 188.400,139.600 188.400 C 140.040 188.400,140.400 188.220,140.400 188.000 C 140.400 187.780,140.760 187.600,141.200 187.600 C 141.640 187.600,142.000 187.420,142.000 187.200 C 142.000 186.980,142.320 186.800,142.712 186.800 C 143.103 186.800,143.683 186.440,144.000 186.000 C 144.317 185.560,144.857 185.200,145.200 185.200 C 145.543 185.200,146.083 184.840,146.400 184.400 C 146.717 183.960,147.257 183.600,147.600 183.600 C 147.943 183.600,148.483 183.240,148.800 182.800 C 149.117 182.360,149.612 182.000,149.899 182.000 C 150.187 182.000,152.769 179.643,155.639 176.761 C 158.508 173.880,160.978 171.654,161.128 171.816 C 161.278 171.977,161.175 172.190,160.900 172.288 C 160.616 172.390,160.400 173.142,160.400 174.033 C 160.400 174.895,160.220 175.600,160.000 175.600 C 159.780 175.600,159.600 176.140,159.600 176.800 C 159.600 177.460,159.420 178.000,159.200 178.000 C 158.971 178.000,158.800 179.200,158.800 180.800 C 158.800 182.400,158.629 183.600,158.400 183.600 C 158.180 183.600,158.000 184.320,158.000 185.200 C 158.000 186.080,158.180 186.800,158.400 186.800 C 158.620 186.800,158.800 187.078,158.800 187.418 C 158.800 188.202,160.575 190.000,161.348 190.000 C 161.670 190.000,162.010 190.225,162.104 190.500 C 162.274 190.999,162.708 190.816,167.398 188.268 C 168.277 187.791,169.345 187.085,169.773 186.700 C 170.201 186.315,170.709 186.000,170.901 186.000 C 171.094 186.000,172.129 185.100,173.200 184.000 C 174.271 182.900,175.353 182.000,175.603 182.000 C 176.389 182.000,177.200 180.898,177.200 179.829 C 177.200 179.263,177.020 178.800,176.800 178.800 C 176.580 178.800,176.400 178.337,176.400 177.771 C 176.400 177.206,176.143 176.486,175.829 176.171 C 175.179 175.522,173.200 175.393,173.200 176.000 C 173.200 176.220,172.880 176.400,172.488 176.400 C 172.097 176.400,171.517 176.760,171.200 177.200 C 170.883 177.640,170.369 178.000,170.059 178.000 C 169.748 178.000,169.157 178.389,168.744 178.864 C 168.332 179.339,167.861 179.585,167.697 179.409 C 167.534 179.234,167.625 179.010,167.900 178.912 C 168.235 178.792,168.400 177.818,168.400 175.967 C 168.400 174.389,168.572 173.200,168.800 173.200 C 169.020 173.200,169.200 172.300,169.200 171.200 C 169.200 170.100,169.380 169.200,169.600 169.200 C 169.820 169.200,170.000 168.660,170.000 168.000 C 170.000 167.340,170.180 166.800,170.400 166.800 C 170.620 166.800,170.800 166.080,170.800 165.200 C 170.800 164.320,170.980 163.600,171.200 163.600 C 171.420 163.600,171.600 163.240,171.600 162.800 C 171.600 162.360,171.780 162.000,172.000 162.000 C 172.220 162.000,172.400 161.460,172.400 160.800 C 172.400 160.140,172.580 159.600,172.800 159.600 C 173.020 159.600,173.200 159.137,173.200 158.571 C 173.200 157.148,174.086 156.400,175.771 156.400 C 176.933 156.400,177.200 156.251,177.200 155.600 C 177.200 155.160,177.380 154.800,177.600 154.800 C 177.833 154.800,178.000 153.467,178.000 151.600 C 178.000 149.733,177.833 148.400,177.600 148.400 C 177.380 148.400,177.200 147.680,177.200 146.800 C 177.200 145.920,177.380 145.200,177.600 145.200 C 178.223 145.200,178.078 141.620,177.429 140.971 C 175.876 139.419,170.800 140.891,170.800 142.894 C 170.800 143.185,170.440 143.683,170.000 144.000 C 169.560 144.317,169.200 144.897,169.200 145.288 C 169.200 145.680,169.020 146.000,168.800 146.000 C 168.580 146.000,168.400 146.360,168.400 146.800 C 168.400 147.422,168.133 147.600,167.200 147.600 C 166.540 147.600,166.000 147.780,166.000 148.000 C 166.000 148.222,164.933 148.400,163.600 148.400 C 162.267 148.400,161.200 148.222,161.200 148.000 C 161.200 147.024,153.629 147.535,152.582 148.582 C 151.217 149.947,151.070 155.600,152.400 155.600 C 152.840 155.600,153.200 155.780,153.200 156.000 C 153.200 156.246,155.200 156.400,158.400 156.400 C 163.333 156.400,163.600 156.441,163.600 157.200 C 163.600 157.640,163.420 158.000,163.200 158.000 C 162.980 158.000,162.800 158.320,162.800 158.712 C 162.800 159.103,162.440 159.683,162.000 160.000 C 161.560 160.317,161.200 160.857,161.200 161.200 C 161.200 161.543,160.840 162.083,160.400 162.400 C 159.960 162.717,159.600 163.215,159.600 163.505 C 159.600 163.796,158.160 165.459,156.400 167.200 C 154.640 168.941,153.200 170.643,153.200 170.983 C 153.200 171.322,152.924 171.600,152.587 171.600 C 151.791 171.600,149.200 174.191,149.200 174.987 C 149.200 175.324,148.912 175.600,148.560 175.600 C 148.209 175.600,147.417 176.140,146.800 176.800 C 146.183 177.460,145.457 178.000,145.186 178.000 C 144.916 178.000,144.357 178.389,143.944 178.864 C 143.532 179.339,143.061 179.585,142.897 179.409 C 142.734 179.234,142.825 179.010,143.100 178.912 C 143.384 178.810,143.600 178.058,143.600 177.167 C 143.600 176.305,143.780 175.600,144.000 175.600 C 144.220 175.600,144.400 175.240,144.400 174.800 C 144.400 174.360,144.580 174.000,144.800 174.000 C 145.029 174.000,145.200 172.800,145.200 171.200 C 145.200 169.600,145.029 168.400,144.800 168.400 C 144.580 168.400,144.400 167.860,144.400 167.200 C 144.400 166.540,144.220 166.000,144.000 166.000 C 143.780 166.000,143.600 165.640,143.600 165.200 C 143.600 164.760,143.420 164.400,143.200 164.400 C 142.980 164.400,142.800 164.125,142.800 163.789 C 142.800 162.996,139.404 159.600,138.611 159.600 C 138.275 159.600,138.000 159.420,138.000 159.200 C 138.000 158.971,136.800 158.800,135.200 158.800 C 133.600 158.800,132.400 158.971,132.400 159.200 C 132.400 159.420,132.112 159.600,131.760 159.600 C 131.409 159.600,130.617 160.140,130.000 160.800 C 129.383 161.460,128.591 162.000,128.240 162.000 C 127.746 162.000,127.600 162.421,127.600 163.840 C 127.600 165.368,127.397 165.869,126.400 166.800 C 125.740 167.417,125.200 168.125,125.200 168.374 C 125.200 168.953,122.567 171.600,121.991 171.600 C 121.752 171.600,120.496 172.680,119.200 174.000 C 117.904 175.320,116.604 176.400,116.310 176.400 C 116.017 176.400,115.517 176.760,115.200 177.200 C 113.958 178.924,110.800 177.939,110.800 175.829 C 110.800 175.263,110.620 174.800,110.400 174.800 C 110.180 174.800,110.000 173.900,110.000 172.800 C 110.000 171.700,109.820 170.800,109.600 170.800 C 109.380 170.800,109.200 170.300,109.200 169.688 C 109.200 169.035,108.870 168.339,108.400 168.000 C 107.960 167.683,107.600 167.103,107.600 166.712 C 107.600 166.097,107.218 166.000,104.800 166.000 C 103.200 166.000,102.000 166.171,102.000 166.400 C 102.000 166.620,101.716 166.800,101.369 166.800 C 101.021 166.800,100.046 167.520,99.200 168.400 C 98.354 169.280,97.379 170.000,97.031 170.000 C 96.667 170.000,96.400 170.338,96.400 170.800 C 96.400 171.252,96.133 171.600,95.787 171.600 C 94.991 171.600,92.400 174.191,92.400 174.987 C 92.400 175.333,92.052 175.600,91.600 175.600 C 91.160 175.600,90.800 175.780,90.800 176.000 C 90.800 176.220,90.440 176.400,90.000 176.400 C 89.560 176.400,89.200 176.580,89.200 176.800 C 89.200 177.020,88.840 177.200,88.400 177.200 C 87.960 177.200,87.600 177.380,87.600 177.600 C 87.600 177.820,86.880 178.000,86.000 178.000 C 85.120 178.000,84.400 178.180,84.400 178.400 C 84.400 178.620,83.695 178.800,82.833 178.800 C 81.942 178.800,81.190 179.016,81.088 179.300 C 80.990 179.575,80.770 179.670,80.600 179.512 C 80.430 179.353,80.855 178.696,81.545 178.051 C 82.235 177.407,82.800 176.670,82.800 176.414 C 82.800 176.158,83.700 175.071,84.800 174.000 C 85.900 172.929,86.800 171.810,86.800 171.514 C 86.800 171.219,87.160 170.717,87.600 170.400 C 88.040 170.083,88.400 169.503,88.400 169.112 C 88.400 168.720,88.580 168.400,88.800 168.400 C 89.020 168.400,89.200 168.080,89.200 167.688 C 89.200 167.297,89.560 166.717,90.000 166.400 C 90.470 166.061,90.800 165.365,90.800 164.712 C 90.800 164.100,90.980 163.600,91.200 163.600 C 91.420 163.600,91.600 163.240,91.600 162.800 C 91.600 162.360,91.780 162.000,92.000 162.000 C 92.248 162.000,92.400 159.867,92.400 156.400 C 92.400 152.933,92.248 150.800,92.000 150.800 C 91.780 150.800,91.600 150.440,91.600 150.000 C 91.600 149.560,91.420 149.200,91.200 149.200 C 90.980 149.200,90.800 148.912,90.800 148.560 C 90.800 148.209,90.260 147.417,89.600 146.800 C 88.940 146.183,88.400 145.477,88.400 145.231 C 88.400 144.647,84.153 140.400,83.569 140.400 C 83.323 140.400,82.617 139.860,82.000 139.200 C 81.383 138.540,80.631 138.000,80.328 138.000 C 80.025 138.000,79.517 137.640,79.200 137.200 C 78.883 136.760,78.343 136.400,78.000 136.400 C 77.657 136.400,77.117 136.040,76.800 135.600 C 76.461 135.130,75.765 134.800,75.112 134.800 C 74.500 134.800,74.000 134.620,74.000 134.400 C 74.000 134.180,73.640 134.000,73.200 134.000 C 72.760 134.000,72.400 133.820,72.400 133.600 C 72.400 133.380,71.680 133.200,70.800 133.200 C 69.920 133.200,69.200 133.020,69.200 132.800 C 69.200 132.578,68.133 132.400,66.800 132.400 C 65.467 132.400,64.400 132.222,64.400 132.000 C 64.400 131.780,63.860 131.600,63.200 131.600 C 62.540 131.600,62.000 131.420,62.000 131.200 C 62.000 130.980,61.280 130.800,60.400 130.800 C 59.520 130.800,58.800 130.620,58.800 130.400 C 58.800 130.180,57.900 130.000,56.800 130.000 C 55.700 130.000,54.800 130.180,54.800 130.400 M110.000 143.200 C 110.000 143.420,109.640 143.600,109.200 143.600 C 108.760 143.600,108.400 143.780,108.400 144.000 C 108.400 144.220,108.080 144.400,107.688 144.400 C 107.297 144.400,106.717 144.760,106.400 145.200 C 106.083 145.640,105.587 146.000,105.298 146.000 C 104.361 146.000,102.000 148.710,102.000 149.787 C 102.000 150.344,101.820 150.800,101.600 150.800 C 101.380 150.800,101.200 151.340,101.200 152.000 C 101.200 152.660,101.380 153.200,101.600 153.200 C 101.820 153.200,102.000 153.740,102.000 154.400 C 102.000 155.333,102.178 155.600,102.800 155.600 C 103.240 155.600,103.600 155.780,103.600 156.000 C 103.600 156.220,104.500 156.400,105.600 156.400 C 106.700 156.400,107.600 156.220,107.600 156.000 C 107.600 155.780,107.960 155.600,108.400 155.600 C 108.840 155.600,109.200 155.420,109.200 155.200 C 109.200 154.980,109.478 154.800,109.818 154.800 C 110.618 154.800,112.400 153.018,112.400 152.218 C 112.400 151.878,112.580 151.600,112.800 151.600 C 113.020 151.600,113.200 151.240,113.200 150.800 C 113.200 150.360,113.380 150.000,113.600 150.000 C 113.820 150.000,114.000 149.100,114.000 148.000 C 114.000 146.900,114.180 146.000,114.400 146.000 C 115.133 146.000,114.812 144.776,113.818 143.782 C 112.820 142.783,110.000 142.354,110.000 143.200 M193.200 240.800 C 193.200 241.020,192.660 241.200,192.000 241.200 C 191.340 241.200,190.800 241.380,190.800 241.600 C 190.800 241.820,190.526 242.000,190.191 242.000 C 189.399 242.000,185.200 246.199,185.200 246.991 C 185.200 247.326,185.020 247.600,184.800 247.600 C 184.580 247.600,184.400 248.140,184.400 248.800 C 184.400 249.460,184.220 250.000,184.000 250.000 C 183.754 250.000,183.600 252.000,183.600 255.200 C 183.600 258.400,183.754 260.400,184.000 260.400 C 184.220 260.400,184.400 260.940,184.400 261.600 C 184.400 262.260,184.580 262.800,184.800 262.800 C 185.020 262.800,185.200 263.160,185.200 263.600 C 185.200 264.040,185.380 264.400,185.600 264.400 C 185.820 264.400,186.000 264.676,186.000 265.013 C 186.000 265.809,188.591 268.400,189.387 268.400 C 189.724 268.400,190.000 268.580,190.000 268.800 C 190.000 269.020,190.540 269.200,191.200 269.200 C 191.860 269.200,192.400 269.380,192.400 269.600 C 192.400 269.842,194.133 270.000,196.800 270.000 C 199.467 270.000,201.200 269.842,201.200 269.600 C 201.200 269.380,201.663 269.200,202.229 269.200 C 203.965 269.200,204.400 268.364,204.400 265.029 C 204.400 262.267,204.330 262.000,203.600 262.000 C 203.160 262.000,202.800 262.180,202.800 262.400 C 202.800 262.620,202.080 262.800,201.200 262.800 C 200.320 262.800,199.600 262.980,199.600 263.200 C 199.600 263.422,198.533 263.600,197.200 263.600 C 195.867 263.600,194.800 263.422,194.800 263.200 C 194.800 262.980,194.517 262.800,194.171 262.800 C 193.363 262.800,192.400 261.837,192.400 261.029 C 192.400 260.683,192.220 260.400,192.000 260.400 C 191.780 260.400,191.600 259.860,191.600 259.200 C 191.600 258.540,191.420 258.000,191.200 258.000 C 190.978 258.000,190.800 256.941,190.800 255.624 C 190.800 254.317,190.980 253.136,191.200 253.000 C 191.420 252.864,191.600 252.173,191.600 251.465 C 191.600 250.635,191.885 249.971,192.400 249.600 C 192.840 249.283,193.200 248.703,193.200 248.312 C 193.200 247.867,193.500 247.600,194.000 247.600 C 194.440 247.600,194.800 247.420,194.800 247.200 C 194.800 246.978,195.867 246.800,197.200 246.800 C 198.533 246.800,199.600 246.978,199.600 247.200 C 199.600 247.420,199.960 247.600,200.400 247.600 C 200.840 247.600,201.200 247.780,201.200 248.000 C 201.200 248.607,203.179 248.478,203.829 247.829 C 204.143 247.514,204.400 246.974,204.400 246.629 C 204.400 246.283,204.580 246.000,204.800 246.000 C 205.020 246.000,205.200 245.100,205.200 244.000 C 205.200 242.267,205.093 242.000,204.400 242.000 C 203.960 242.000,203.600 241.820,203.600 241.600 C 203.600 241.380,203.060 241.200,202.400 241.200 C 201.740 241.200,201.200 241.020,201.200 240.800 C 201.200 240.560,199.600 240.400,197.200 240.400 C 194.800 240.400,193.200 240.560,193.200 240.800 M209.200 254.800 L 209.200 269.200 218.400 269.200 L 227.600 269.200 227.600 266.400 L 227.600 263.600 222.000 263.600 L 216.400 263.600 216.400 252.571 C 216.400 239.638,216.661 240.400,212.229 240.400 L 209.200 240.400 209.200 254.800 M230.800 254.800 L 230.800 269.200 239.200 269.200 L 247.600 269.200 247.600 266.400 L 247.600 263.600 242.800 263.600 L 238.000 263.600 238.000 260.800 L 238.000 258.000 242.400 258.000 L 246.800 258.000 246.800 254.800 L 246.800 251.600 242.400 251.600 L 238.000 251.600 238.000 249.200 L 238.000 246.800 242.800 246.800 L 247.600 246.800 247.600 244.171 C 247.600 240.300,247.838 240.400,238.629 240.400 L 230.800 240.400 230.800 254.800 M258.000 241.200 C 258.000 241.640,257.820 242.000,257.600 242.000 C 257.380 242.000,257.200 242.540,257.200 243.200 C 257.200 243.860,257.020 244.400,256.800 244.400 C 256.580 244.400,256.400 244.940,256.400 245.600 C 256.400 246.260,256.220 246.800,256.000 246.800 C 255.780 246.800,255.600 247.340,255.600 248.000 C 255.600 248.660,255.420 249.200,255.200 249.200 C 254.980 249.200,254.800 249.740,254.800 250.400 C 254.800 251.060,254.620 251.600,254.400 251.600 C 254.180 251.600,254.000 251.960,254.000 252.400 C 254.000 252.840,253.820 253.200,253.600 253.200 C 253.380 253.200,253.200 253.740,253.200 254.400 C 253.200 255.060,253.020 255.600,252.800 255.600 C 252.580 255.600,252.400 256.140,252.400 256.800 C 252.400 257.460,252.220 258.000,252.000 258.000 C 251.780 258.000,251.600 258.540,251.600 259.200 C 251.600 259.860,251.420 260.400,251.200 260.400 C 250.980 260.400,250.800 260.940,250.800 261.600 C 250.800 262.260,250.620 262.800,250.400 262.800 C 250.180 262.800,250.000 263.340,250.000 264.000 C 250.000 264.660,249.820 265.200,249.600 265.200 C 249.380 265.200,249.200 265.740,249.200 266.400 C 249.200 267.060,249.020 267.600,248.800 267.600 C 248.580 267.600,248.400 267.960,248.400 268.400 C 248.400 269.147,248.667 269.200,252.400 269.200 C 256.133 269.200,256.400 269.147,256.400 268.400 C 256.400 267.960,256.580 267.600,256.800 267.600 C 257.020 267.600,257.200 266.880,257.200 266.000 C 257.200 265.120,257.380 264.400,257.600 264.400 C 257.820 264.400,258.000 264.040,258.000 263.600 C 258.000 262.848,258.267 262.800,262.400 262.800 L 266.800 262.800 266.800 264.000 C 266.800 264.660,266.980 265.200,267.200 265.200 C 267.420 265.200,267.600 265.740,267.600 266.400 C 267.600 267.060,267.780 267.600,268.000 267.600 C 268.220 267.600,268.400 267.960,268.400 268.400 C 268.400 269.147,268.667 269.200,272.400 269.200 C 276.133 269.200,276.400 269.147,276.400 268.400 C 276.400 267.960,276.220 267.600,276.000 267.600 C 275.780 267.600,275.600 267.060,275.600 266.400 C 275.600 265.740,275.420 265.200,275.200 265.200 C 274.980 265.200,274.800 264.660,274.800 264.000 C 274.800 263.340,274.620 262.800,274.400 262.800 C 274.180 262.800,274.000 262.260,274.000 261.600 C 274.000 260.940,273.820 260.400,273.600 260.400 C 273.380 260.400,273.200 259.860,273.200 259.200 C 273.200 258.540,273.020 258.000,272.800 258.000 C 272.580 258.000,272.400 257.640,272.400 257.200 C 272.400 256.760,272.220 256.400,272.000 256.400 C 271.780 256.400,271.600 255.860,271.600 255.200 C 271.600 254.540,271.420 254.000,271.200 254.000 C 270.980 254.000,270.800 253.460,270.800 252.800 C 270.800 252.140,270.620 251.600,270.400 251.600 C 270.180 251.600,270.000 251.060,270.000 250.400 C 270.000 249.740,269.820 249.200,269.600 249.200 C 269.380 249.200,269.200 248.660,269.200 248.000 C 269.200 247.340,269.020 246.800,268.800 246.800 C 268.580 246.800,268.400 246.260,268.400 245.600 C 268.400 244.940,268.220 244.400,268.000 244.400 C 267.780 244.400,267.600 244.040,267.600 243.600 C 267.600 243.160,267.420 242.800,267.200 242.800 C 266.980 242.800,266.800 242.260,266.800 241.600 L 266.800 240.400 262.400 240.400 C 258.267 240.400,258.000 240.448,258.000 241.200 M278.500 240.998 C 278.121 241.429,278.000 244.899,278.000 255.383 L 278.000 269.200 281.600 269.200 L 285.200 269.200 285.200 260.800 C 285.200 255.467,285.346 252.400,285.600 252.400 C 285.820 252.400,286.000 252.760,286.000 253.200 C 286.000 253.640,286.180 254.000,286.400 254.000 C 286.620 254.000,286.800 254.360,286.800 254.800 C 286.800 255.240,286.980 255.600,287.200 255.600 C 287.420 255.600,287.600 255.920,287.600 256.312 C 287.600 256.703,287.960 257.283,288.400 257.600 C 288.840 257.917,289.200 258.497,289.200 258.888 C 289.200 259.280,289.380 259.600,289.600 259.600 C 289.820 259.600,290.000 259.960,290.000 260.400 C 290.000 260.840,290.180 261.200,290.400 261.200 C 290.620 261.200,290.800 261.520,290.800 261.912 C 290.800 262.303,291.160 262.883,291.600 263.200 C 292.040 263.517,292.400 264.097,292.400 264.488 C 292.400 264.880,292.580 265.200,292.800 265.200 C 293.020 265.200,293.200 265.560,293.200 266.000 C 293.200 266.440,293.380 266.800,293.600 266.800 C 293.820 266.800,294.000 267.083,294.000 267.429 C 294.000 268.867,295.011 269.200,299.371 269.200 L 303.600 269.200 303.600 254.800 L 303.600 240.400 300.971 240.400 C 297.085 240.400,297.200 240.113,297.200 249.771 C 297.200 254.990,297.054 258.000,296.800 258.000 C 296.580 258.000,296.400 257.640,296.400 257.200 C 296.400 256.760,296.220 256.400,296.000 256.400 C 295.780 256.400,295.600 256.080,295.600 255.688 C 295.600 255.297,295.240 254.717,294.800 254.400 C 294.360 254.083,294.000 253.503,294.000 253.112 C 294.000 252.720,293.820 252.400,293.600 252.400 C 293.380 252.400,293.200 252.040,293.200 251.600 C 293.200 251.160,293.020 250.800,292.800 250.800 C 292.580 250.800,292.400 250.480,292.400 250.088 C 292.400 249.697,292.040 249.117,291.600 248.800 C 291.160 248.483,290.800 247.903,290.800 247.512 C 290.800 247.120,290.620 246.800,290.400 246.800 C 290.180 246.800,290.000 246.480,290.000 246.088 C 290.000 245.697,289.640 245.117,289.200 244.800 C 288.760 244.483,288.400 243.903,288.400 243.512 C 288.400 243.120,288.220 242.800,288.000 242.800 C 287.780 242.800,287.600 242.517,287.600 242.171 C 287.600 240.425,279.881 239.430,278.500 240.998 M262.800 250.400 C 262.800 251.060,262.980 251.600,263.200 251.600 C 263.420 251.600,263.600 252.140,263.600 252.800 C 263.600 253.460,263.780 254.000,264.000 254.000 C 264.220 254.000,264.400 254.540,264.400 255.200 C 264.400 256.373,264.356 256.400,262.400 256.400 C 260.444 256.400,260.400 256.373,260.400 255.200 C 260.400 254.540,260.580 254.000,260.800 254.000 C 261.020 254.000,261.200 253.460,261.200 252.800 C 261.200 252.140,261.380 251.600,261.600 251.600 C 261.820 251.600,262.000 251.060,262.000 250.400 C 262.000 249.740,262.180 249.200,262.400 249.200 C 262.620 249.200,262.800 249.740,262.800 250.400 " stroke="none" fill="#040404" fill-rule="evenodd"></path></g></svg>